<svg xmlns="http://www.w3.org/2000/svg" viewBox="0 0 2000 320" preserveAspectRatio="xMinYMin meet"><path d="M126 34c-6 0-12 1-17 4-25 13-27 49-3 64 11 7 15 16 6 16-4 0-25 11-33 18-7 6-7 7-8 24-1 11-3 20-6 25-2 6-3 9-1 10 3 5 22 13 29 13 5 0 6 1 6 5 0 7-6 18-12 26-5 5-18 12-30 16-4 1-4 3-3 13 2 16 5 26 10 31 3 3 6 4 17 3 8-1 15-2 16-2 2-2-5-12-11-14-2-1-5-4-5-6-1-1-2-4-3-6-1-3 2-5 12-11 11-7 13-9 19-22 3-8 7-15 8-15 4 0 18 22 22 33 2 6 5 16 6 22l1 12 7-1c16-2 42-20 42-29 0-3-1-3-11-2-6 0-14 2-17 2-4 1-5 1-8-8-2-6-8-16-13-24l-8-13 7-14c3-8 6-18 6-22v-6l5 4 5 5 6-6c3-3 7-8 9-10 1-2 7-6 12-9l10-5-5-7c-3-4-6-9-6-11-1-5-7-8-12-5-2 1-5 2-6 2-2 0-4 3-6 7-3 6-3 7 0 10 2 2 2 3 0 5-3 2-4 0-11-10-4-7-10-16-13-20-8-10-7-16 6-22 22-11 27-40 11-59-7-7-19-11-30-11zm-1 2h2c16 1 32 13 36 29 3 16-9 35-25 39-7 3-8 3-7 10 1 4 3 10 7 14 3 3 9 12 13 20 4 7 7 14 8 14 0 1 2-1 4-2 2-2 5-4 6-4 2 0 2-1-1-5-5-4-5-5-2-10 2-3 3-4 3-3 0 2 2 2 6-2 3-3 5-4 7-2s2 3 0 7c-2 3-2 6 0 6 1 1 1 0 1-1-1-5 4-3 7 2 3 6 3 7 1 8-1 1-4 2-5 2-2 0-8 5-14 12l-11 11-14-15c-8-9-15-16-16-16s3 5 8 11c11 11 11 12 10 21-2 11-11 31-17 36-3 3-7 5-11 5-7 0-8 1-14 16-6 13-9 16-17 21-16 10-16 9-13 18 1 5 4 8 6 9s5 3 8 5c3 4 3 5 0 6-5 4-21 3-26-2-7-7-11-40-5-40 5 0 20-8 27-15 9-8 15-20 16-32 0-6 2-16 5-22 7-15 10-29 9-49 0-9 1-20 1-25 2-8 1-8-7-12-14-6-22-22-19-38 2-8 12-20 21-24 4-2 8-3 12-3zm-12 84v8c0 8 0 8-13 15l-13 6v16c0 14 0 15-4 15-2 0-4 1-4 2s-1 2-3 2c-1 0-3-1-4-2 0-1 1-2 2-2 2 0 3-1 3-2s-1-2-2-2c-2 0-3-2-2-10 2-23 3-24 16-33 6-4 15-9 18-10l6-3zm-1 21l2 4c2 7-2 26-8 40-3 7-5 13-6 13 0 0-1-3-1-7 0-6-2-8-5-10-4-2-5-3-5-16v-14l12-5 11-5zm-26 43h3c4 0 6 1 6 2 0 3-5 3-11 0-2-1-2-1 2-2zm-15 2c1 0 2 1 2 3 0 1-1 4-1 6-2 3-2 3-4 1s-2-5-1-7c0-2 3-3 4-3zm8 2c1 0 2 3 2 7 0 7-2 9-5 5s-1-12 3-12zm7 2c8 0 12 3 11 9s-3 8-10 6c-4-1-5-15-1-15zm49 30l7 9c3 5 9 16 13 24 3 9 7 15 8 15 0 0 6-1 12-3s12-3 15-2c4 0 4 0-1 7-3 3-11 9-18 12s-15 6-18 7c-5 1-5 1-6-11-2-13-8-29-17-42l-6-9 6-3 5-4zM371 48c-13 0-21 4-29 13-11 12-13 27-5 42 3 5 16 17 20 17 1 0 3 2 3 4 2 3-2 6-7 6-2 0-35 15-37 17-1 1-3 8-5 16-2 11-5 17-8 19-2 1-5 5-7 9-3 6-3 6 3 11 8 7 26 15 29 13 3-4 4-25 1-27-2-1-2-4 0-15l1-13 14-5 13-4 1 5c1 10-3 29-8 41-6 13-6 19-4 41 1 5 1 10 0 10s-7-1-15-3c-20-4-19-4-17 8 2 13 9 29 17 38 9 10 11 7 11-10v-13l10 1c12 0 10 2 15-23 2-12 6-11 13 2 6 11 6 11 2 18-1 4-6 11-9 16s-5 9-5 10c1 0 9 1 19 2 18 1 40-2 40-6 0-3-8-7-18-10-5-1-9-3-9-3-1 0 1-3 2-7 5-9 4-14-7-30l-9-15 4-12c3-6 5-15 5-20 0-7 1-7 4-4 7 6 13 4 27-9 4-3 11-7 16-9s9-4 9-5c0 0-2-5-5-9-2-4-5-8-5-10 0-1-1-3-3-5s-4-2-7 0c-2 1-5 2-7 2-3 0-9 11-8 15 0 3-5 11-8 11-1 0-3-3-6-7-2-4-8-12-14-18-12-13-13-18-3-23 11-5 20-15 22-25 7-24-11-47-36-47zm0 3c12 0 24 6 30 16 10 16 3 41-14 49-5 2-10 4-11 4-4 0 1 17 6 21 3 2 10 10 15 17s9 14 10 14c0 1 3-1 6-4s7-6 8-6c2 0 2-1 0-4-3-3-3-4-1-9 1-2 3-5 4-5s1 1 0 2c-2 4 1 2 6-2 3-3 4-4 7-2 1 2 2 4 1 6 0 2 1 4 2 5 2 1 3 2 2 3-1 2-3 1-6-2-5-4-5-4 0 2 4 4 7 5 8 4 1-2 1-2 2 0 2 3 0 5-9 8-3 2-9 5-13 8-3 3-9 7-13 9l-6 4-15-16c-8-9-15-15-15-14s5 6 10 12c9 10 9 10 8 21-2 19-18 46-25 41-3-1-5 4-5 13 0 4 0 11-1 14-1 6-1 6-13 6-16 0-17 0-13 2 3 2 3 5 3 13 0 6-1 11-2 11-3 0-14-17-18-29-5-16-5-19 0-18 7 2 22 5 26 5 6 0 8-12 3-23-3-9-2-14 7-35 5-11 5-16 6-36 0-12 1-26 1-29 2-6 1-7-5-10-15-7-22-17-22-32 0-11 4-18 13-26 7-6 15-8 23-8zm-16 81c1 0 2 3 2 8v7l-14 5c-8 3-14 6-15 7 0 1-2 7-3 14l-2 12s-4 1-9 2c-7 1-9 1-9-2 0-2 1-3 3-2s3 0 3-3c0-2 2-10 4-18l3-13 17-8c10-5 19-9 20-9zm-54 56c1 0 2 1 4 2s8 4 13 6c9 3 9 4 9 9-1 8-3 8-14 3-6-4-8-6-8-9s0-3-1-1c-3 3-7-2-5-7 0-2 1-3 2-3zm16 1c3 0 9 1 10 2v3c-1 2-12-2-12-4 0 0 1-1 2-1zm67 38c1 0 2 1 3 4 2 2 7 9 11 15l6 10-4 10-4 10c-1 1 3 2 7 3s10 3 14 5c6 3 6 3 3 4-4 2-47 3-47 1 0 0 4-6 7-13 4-7 7-15 7-17s-2-9-6-14c-5-11-5-11-1-15 2-2 3-3 4-3zM615 33c-5 0-10 1-15 3-28 13-30 50-3 66 8 4 9 5 7 10 0 3-1 9-2 13 0 5-3 15-7 24l-8 15 4 8c4 7 4 8 1 15-3 9-3 21 0 26 2 2 3 8 3 12 0 7 0 7-6 6s-6-1-5 3c1 3 3 8 5 12 2 6 2 7-2 15-2 4-7 12-11 18-4 5-7 10-7 11s3 2 6 3c18 3 53 0 53-5 0-1-3-3-5-5-4-3-5-6-6-15v-11l6-1c17-4 19-6 18-13-1-3-4-10-7-16-4-5-5-9-4-8 2 0 5-1 6-3 3-3 3-5 2-12-2-6-1-10 1-17 5-13 2-31-7-52s-10-29-6-29c2 0 6-2 11-5 18-11 23-35 11-51-8-12-20-18-33-17zm2 2c7 0 16 3 23 9 12 10 15 26 7 42-4 9-17 18-26 18-3 0-4 1-2 3 1 1 2 4 2 5 0 2 3 10 6 17 10 21 13 38 10 52-2 12-4 15-9 11-1-1-3-2-4-1s-6-5-10-12c-8-14-8-15 5-35 3-5 4-8 2-6-5 4-16 23-16 27 0 2 4 9 7 16 6 10 7 13 5 15s-2 2 0 2c1 0 3-1 3-2 2-3 9-2 12 2 4 4 4 4 0 3-3-1-3-1 2 5 4 5 4 7 1 8-4 3-5 3-8-1-2-3-2-3 1-5 1-1 2-2 0-2-3 0-13 10-12 12 1 0 3-1 4-3 2-2 4-3 5-2s0 3-2 4c-7 5-11 4-13-2 0-3-4-14-8-24s-8-20-9-23c-2-4-1-8 7-23 4-10 9-19 9-20 1-1 0-1-2 0s-2 0-1-5c3-14 3-14-6-20-12-6-17-13-19-25-3-23 16-40 36-40zm-21 148l4 9c2 5 5 13 7 19 1 5 1 9 1 9-5 0-11-4-13-8-4-6-4-10-1-21l2-8zm5 37c3 0 8 7 8 11 0 3-6 5-8 2-2-2-2-13 0-13zm22 1c3 0 5 3 9 10 9 15 9 16-2 20-5 1-12 3-15 4-5 1-5 2-3 5 2 2 3 5 3 10-1 10-4 10-12-1-6-8-16-30-16-35 0-1 5 0 11 1 10 3 18 4 22 3 1 0-1-3-4-7l-5-6 7-3c2 0 4-1 5-1zm-10 11c2 0 2 1 2 2s0 2-2 2c-1 0-2-1-2-2s1-2 2-2zm-21 24l4 6c2 4 3 9 3 11-1 4-1 5 4 6 4 1 10 3 14 4 7 3 7 4 3 5-4 2-47 3-47 1 0 0 3-5 7-11 4-5 8-12 9-16l3-6zM871 19c-22-1-42 19-39 42 2 12 8 20 19 27 7 4 10 8 10 10 0 3-7 11-19 23l-19 18 2 21c2 16 2 24 0 32-3 12-1 14 10 14 3 0 6 1 6 2 0 3-20 31-32 45l-12 13 4 10c3 5 7 11 9 14 4 4 5 5 20 3 19-1 23-3 15-10-3-3-7-5-9-5s-6-1-7-4c-4-3-3-4 7-20 6-9 14-22 18-29 5-10 8-13 12-14 6-1 17 4 17 8 0 0-3 2-8 3-11 4-12 5-10 10 9 17 45 41 44 30 0-4-7-19-9-21-5-2-3-6 5-11 5-3 8-6 8-8 0-1-6-8-13-15l-13-13 3-9c4-8 4-8 12-7 5 0 10 2 12 3 8 6 13 4 18-6 2-5 4-13 5-18 1-7 0-8-4-9-5-2-18 0-21 3-1 1-2 3-1 5s-1 2-7 2c-6-1-8-2-8-6-1-7-9-30-14-40-4-8-4-20-1-20 1 0 6-3 11-6 24-16 21-52-6-64-5-2-10-3-15-3zm0 2c8 0 16 3 22 9 13 10 16 28 8 43-5 8-18 17-26 17-3 0-4 1-2 2 1 0 2 4 3 8s4 15 9 25c6 16 7 20 7 34 0 13 0 18-5 27l-5 10 6 3c9 6 21 19 21 23 0 2-3 6-11 10s-10 6-7 6 6 3 9 9c3 5 5 10 5 12-1 5-16-3-27-16-11-11-13-15-7-16 2-1 7-3 11-5l8-3-9-6c-6-4-11-5-17-5h-9l1-9c1-9-1-16-5-19-1-1-1-4 2-8 4-8 8-25 8-32 0-3 2-6 3-7 2-1 3-2 3-3 0-2-14 6-24 13l-4 3 3 17c3 15 3 16 0 19-3 2-3 3 2 2 4-1 6 0 8 3 4 5 4 8 1 6-2-1-2 0-1 5 2 8-4 11-8 5-2-3-3-3-4-1s-12 2-14 0c0-1 1-5 2-10 1-6 1-16 0-30l-2-22 14-14c8-7 18-15 21-18 4-2 6-4 5-4-2 0-3-2-3-6 0-6-1-8-8-11-5-2-11-7-14-12-7-10-8-27-1-37 8-11 19-17 31-17zm-13 115c2 0-1 17-5 28-2 6-5 10-5 10-1 0-3-4-3-9-1-5-2-11-3-13-1-4 1-6 7-10 5-3 9-6 9-6zm71 14c7 0 8 3 4 10-2 4-10 6-13 2 0-1 0-4 1-7 1-4 2-5 8-5zm-14 2c2 0 2 2 2 5 0 2-1 6-2 7-1 2-2 1-2-4 0-4 1-8 2-8zm-10 10c4 0 6 1 6 3s1 3 3 4c2 0 0 7-3 7-1 0-2-1-2-3 0-3 0-3-2-1-3 4-12 3-12-1 0-6 3-9 10-9zm23 5c3 0 3 0 3 2s-2 3-7 3c-9 0-8-4 1-5h3zm-3 7c3 0 3 1 1 5 0 2-2 3-2 3-10-2-11-6-2-7 1-1 3-1 3-1zm-83 23c-2 0-6 0-9 1-4 1-4 2-1 2s7-1 9-2c4-1 5-1 1-1zm10 12c1 0 2 1 3 1 2 1 1 5-7 18-5 10-13 23-18 30l-9 13 5 4c2 3 6 5 7 5 2 0 6 2 8 3 4 3 4 4 2 5-1 1-9 2-16 2-13 0-14 0-18-6-2-3-5-8-6-12-2-5-1-6 9-18 6-6 15-18 20-26 6-8 11-15 11-16 2-2 6-3 9-3zM1123 34c-19 0-36 14-37 33-1 6-1 13 0 16 2 6 12 19 20 22 9 5 7 9-9 18-8 5-18 11-22 14-7 5-7 5-9 22 0 9-2 22-4 30-2 7-2 14-2 15 1 1 5 3 9 3 4 1 8 3 9 4 2 4 11-2 11-7 0-3 1-6 2-7 3-2-2-17-6-17-1 0-2-6-2-14v-14l11-5c15-7 15-6 15 5s-3 25-10 39c-3 7-4 12-3 20 2 18-11 31-35 34-4 1-8 3-9 5-2 4 3 36 5 39 6 7 32 6 32-1 0-2-2-5-4-7-13-11-15-16-6-17 10-2 19-10 26-22l6-12 7 8c13 14 21 37 21 56v9l7-2c23-4 53-29 40-34-3-1-16 1-23 4-2 1-4-2-9-12-3-8-9-19-14-26l-8-13 7-14c5-10 7-17 8-26 0-6 1-12 2-12 0 0 3 2 7 4l7 4 8-7c4-4 9-7 10-7 6 0 12-5 12-10s-5-19-10-26c-3-4-3-5-9-2-3 2-7 6-10 10-4 7-4 7-1 11 2 2 2 4 0 6-2 3-4 1-18-13-18-20-20-26-9-31 33-13 34-54 2-69-5-2-10-4-15-4zm-1 4c21-1 36 13 36 33 0 6-2 14-3 17-4 8-15 16-23 17-6 2-6 2-4 11 0 5 3 14 6 20 8 17 12 35 10 46-1 10-12 34-15 34s-2 4 6 14c5 7 17 29 24 44 0 0 5-1 12-3 9-2 13-3 15-1 3 3-11 17-24 23-21 9-21 9-21-1 0-23-9-44-28-63-14-13-15-14-15-23 0-5 2-13 6-20 6-12 10-35 8-41-1-2 0-4 2-5 5-4-11 0-22 5l-11 5v15c0 12 0 15-3 17s-3 2 2 2c5-1 6 0 8 4 2 6 2 10-1 6-1-2-1-1-1 5s0 8-3 9c-2 0-4-1-5-5-1-3-2-5-6-5-2 0-5 1-6 2 0 2 1 2 4 1s5 0 5 1c0 2-11 3-12 0-1 0 0-5 1-10 2-5 4-18 5-28 0-11 1-20 2-21 3-4 39-25 44-25 4 0 5 0 3-1s-3-4-3-7-3-5-7-7c-20-8-27-35-14-52 7-9 16-13 28-13zm56 87c1 0 3 2 4 4 4 5 4 6-1 10-6 7-7 6-10-1-2-6-1-9 4-12 1 0 2 0 3-1zm-40 10c1-1 5 4 11 10 10 12 12 13 16 8 4-4 16 1 13 6 0 1-2 0-4-1-3-2-3-2-2 1s0 5-3 9c-5 5-7 5-15 0-5-4-8-8-12-19l-4-14zm27 3c1-1 3 1 5 4 5 8 4 10-2 3-3-2-4-5-4-7h1zm20 0c2 0 2 1 3 3s0 5-3 7-4 4-2 4c1 0 3-1 4-2 2-2 3-2 4 1 0 2 0 4-2 5-5 3-7 3-9-4-3-5-3-6 0-10 3-2 4-3 5-4zm-84 84c2 0 3 1 4 3 3 3 2 5-2 13-5 13-13 19-24 23-5 1-9 2-9 2-2 2 5 15 8 16 5 2 10 7 8 9 0 1-6 2-13 2-14 0-16-2-16-24l-1-16 11-3c15-4 23-9 27-17 3-5 5-8 7-8zM1373 53c-10 1-19 4-26 12-17 19-14 45 8 57 9 6 10 9 5 10-9 3-21 9-31 16-10 6-11 8-17 22-3 8-8 20-11 26-3 7-6 13-6 14 0 2 21 11 25 11 2 0 4-1 5-3 0-2 2-5 3-7 2-5 2-13-1-18-2-4-1-8 1-16 3-10 4-11 12-14 5-2 11-4 15-5 6-1 6-1 6 6 0 10-4 25-10 38-4 10-5 22-2 29 1 2 2 6 2 9 0 5 0 5-7 5-4 0-11-1-16-3-4-1-8-3-8-3-2 0 2 21 7 30 5 13 17 25 20 23 3-1 2-14-1-21-1-3 0-4 5-4 3 0 9-1 12-2 6-2 7-3 6-11 0-5 0-9 1-9s4 4 7 9c4 7 5 11 3 16-1 6-7 21-12 32-1 0 2 2 6 3 8 3 38 1 46-2 3-1 5-3 5-4-2-5-11-10-19-11l-8-1 4-14c4-14 4-14 0-20-2-2-7-9-10-14l-7-9 7-14c5-10 6-17 6-25 0-7 1-12 2-12s5 2 9 3c8 3 8 3 16-2 5-2 9-5 10-5 2 0 5-1 9-3 5-3 6-4 4-9-1-8-7-21-11-27-3-4-3-4-11 3-10 10-12 14-7 18 3 4 3 4 0 5-2 1-9-3-19-12-8-7-16-13-17-13s-2-2-2-5 2-5 5-6c7-1 19-12 23-20 4-7 4-24 0-32-7-14-22-21-36-21zm1 3c8 0 16 3 23 9 12 9 16 25 10 39-4 9-16 19-24 20-7 2-7 2-6 7 1 3 4 10 7 15 15 31 15 58-1 79-2 3 0 6 8 18l11 15-2 11c-2 6-3 13-4 15-1 4 0 5 8 6 9 1 20 8 17 10 0 0-7 2-14 3-14 2-17 2-28 0-8-1-8-2-2-15 3-5 5-14 6-19 1-7 0-10-5-18-4-5-11-12-17-16-14-9-15-15-5-36 4-11 6-19 7-30l1-16-7 1c-4 1-12 4-18 7-10 5-11 6-14 18-3 8-5 12-7 12-1 0-2 1-2 2 1 1 3 2 5 2 4 0 6 4 6 9 0 2 0 3-2 2-1 0-2 1-2 3 0 10-7 14-9 5-1-3-2-4-2-3-2 2-9 2-12-1-2 0 1-8 5-17s9-21 11-26c3-7 6-11 13-16 11-8 28-16 34-16 3 0 4-1 4-5s-2-6-9-9c-11-5-19-16-19-29s2-18 12-27c7-6 15-9 23-9zm59 82c1 0 2 1 3 2 2 3 3 5 3 6 0 2-2 5-4 7l-5 5-3-6c-3-6-3-6 2-11 2-2 3-3 4-3zm-45 6s7 5 14 12c12 10 14 12 18 10 4-3 13 0 13 4 0 2 0 3-2 3-1 0-2-1-2-2s0-2-1-2-2 2-1 4c0 2-1 4-5 6-2 1-6 2-7 2-5 0-18-6-18-8 0-1-2-8-5-15s-5-13-4-14zm32 7c1 0 3 1 5 4 3 3 4 6 3 6-3 0-9-7-8-10zm21 1c3 0 3 6-2 9-2 2-4 4-2 4 1 0 3-1 3-2 2-3 5-2 5 2 0 2-1 4-3 5-4 2-4 2-8-5-3-6-2-9 4-12 1 0 2-1 3-1zm-84 85h1c5 1 7 4 8 14 0 8 0 9-5 12-3 1-8 2-12 1-8-1-9-1-5 9 1 3 1 8 1 11l-1 6-6-7c-7-8-15-27-15-35 0-4 0-4 11-1 16 4 20 3 20-5 0-4 1-5 3-5zM1615 31h-6c-35 5-44 50-15 68 11 7 12 10 9 17-4 7-10 44-11 59 0 7-1 16-3 21-2 6-2 10 0 15 4 10 3 23-1 23-3 0-3 2-1 9 3 7-2 27-11 46-5 13-5 14 3 16 8 1 37 0 44-3 5-2 6-3 4-6-3-5-14-10-20-10-5 0-6 0-4-5 1-8 1-8 8-3 3 2 7 4 8 4 3 0 3-9-1-17-1-4-3-8-3-8s3 0 7 1c6 2 15 1 17-1 1 0 0-7-2-15-1-8-2-17-3-20 0-3-1-7-3-9s-1-5 3-16c4-8 5-17 5-24 0-10-1-16-8-43-1-5-4-10-6-12-5-5-3-13 3-15 13-4 25-20 25-35 0-20-17-37-38-37zm-1 3c7 0 14 1 17 3s8 6 11 9c16 19 6 51-18 55-6 2-6 2-5 9 1 4 4 13 7 20 12 27 14 44 7 63-7 17-10 17-19-4l-7-16 6-16c8-23 7-22 5-20-2 1-5 10-8 19l-6 17 7 17c7 15 8 17 5 20-4 3-2 3 4 0 3-2 5-1 8 1 4 4 5 8 1 6-3-2-2 1 2 6 2 4 2 6 0 8-2 3-3 3-6 0-2-2-3-2-4-1 0 1-4 3-7 3-7 2-7 2-7-7 0-4-3-18-7-29l-7-22 5-25c2-14 5-28 7-31 4-12 3-15-8-21-7-4-11-8-14-14-8-17-1-39 14-47 4-2 11-3 17-3zm-20 154c2 0 9 28 11 42 3 15 2 29-4 49l-3 9 9 1c10 1 20 7 17 10-3 2-43 4-48 2-2-1-1-4 2-11 12-22 19-66 14-79-2-5-2-9-1-15 2-4 3-8 3-8zm30 34c-1 0-4 2-8 5-3 3-5 5-4 5s3-1 4-2 4-3 6-5c3-1 4-3 2-3zm2 13h1c6 0 6 1 8 10l2 10c0 2-13 1-19-1-3-1-6-1-6-1-1 1 1 5 2 10 2 5 3 10 3 12-1 3-1 3-6-1-5-3-5-5-3-11 1-4 1-11 1-15 0-6 1-6 6-5 6 0 6 0 6-4 0-3 1-4 5-4zm-12 1c2 0 4 1 4 2 1 1 0 2-1 2-2 0-4-1-5-2 0-1 1-2 2-2zM1874 20c-17 0-29 8-36 23-7 17 0 36 16 46 5 3 9 7 9 8 0 5-5 16-10 21-3 3-9 10-12 15l-7 10 2 17c1 13 1 17-1 21-2 2-4 7-4 10-2 6-1 7 5 10 4 2 7 5 7 6 0 4-17 38-27 55-12 19-12 22-1 36l5 7 19-1c23-1 26-4 17-12-4-4-9-6-12-6-12 0-12-3 2-35 7-17 13-32 14-34 2-5 13-7 23-4 12 4 10 6-11 11-2 0 9 16 15 23 8 8 20 15 26 15 4 0 2-10-5-20l-5-8 7-3c14-6 14-8-3-24l-16-15 4-10c2-6 4-10 5-9 11 4 32 9 34 9 3-2 8-26 6-30 0-1-3-2-5-2-3 0-6-1-7-2-2-2-15 3-15 7 0 2-1 2-8 1-5-2-8-3-8-6 0-4-9-32-12-39-5-10-5-16 2-19 17-7 25-20 24-38-1-20-17-34-37-34zm-1 3c14-1 28 8 34 21 8 18-3 40-24 46-6 2-7 3-6 8 0 3 3 10 6 15 2 6 6 18 7 26l2 16 10 3c6 1 11 3 11 4 2 5 4 2 3-3-1-4 0-5 4-7 7-2 8-2 6 0-1 2 1 2 5 1 5-1 7 0 8 2s0 5-2 6c-1 1-2 4-2 6s0 3-1 3-3-3-3-6c-1-4-2-6-2-6-2 2 2 15 4 15 3-1 3 4 1 6-1 1-14-3-28-7l-26-9-2-16c-3-17-4-22-6-20 0 0 5 32 6 36 1 2 5 4 9 5 10 3 10 3 1 22-6 12-13 19-21 18-5-1-6 0-13 17-4 10-11 27-16 37-8 18-8 19-5 23 2 2 6 3 9 3 5 0 17 9 15 11-1 1-9 2-18 3-19 1-20 0-27-15l-4-7 10-17c18-28 31-58 31-69 0-7 2-15 7-24 6-14 6-17 7-38 0-12 1-27 1-32 2-9 2-9-7-13-28-13-24-54 6-63 3-1 7-1 10-1zm-15 95c1-1 2 2 2 7 2 9 1 10-5 15l-6 6 2 12c1 10 1 13-2 20-4 8-7 10-10 7s-2-5 3-5c4 0 4 0 1-2-2-2-4-8-5-19l-1-17 7-9c4-6 9-11 11-13 1-2 2-2 3-2zm2 22c1 1 1 4-1 12-2 12-5 13-6 3-1-6 0-9 3-12 2-2 3-3 4-3zm-24 48c2 0 3 2 3 6 0 7 0 7-3 4-4-4-3-10 0-10zm8 1c1 0 2 2 2 5 1 5-1 9-3 7s-2-10 0-12h1zm46 7c2 0 27 24 27 27 0 1-8 5-16 8-4 1-4 1 0 6s10 16 10 19c0 9-26-11-33-25-2-4-2-5 7-8 6-2 10-4 10-6 0-1-3-4-7-6l-8-3 4-6c2-3 5-6 6-6z"/></svg>
